<?xml version="1.0" encoding="UTF-8" standalone="no"?>
<!-- Generator: Adobe Illustrator 21.1.0, SVG Export Plug-In . SVG Version: 6.00 Build 0)  -->

<svg
   xmlns:dc="http://purl.org/dc/elements/1.1/"
   xmlns:cc="http://creativecommons.org/ns#"
   xmlns:rdf="http://www.w3.org/1999/02/22-rdf-syntax-ns#"
   xmlns:svg="http://www.w3.org/2000/svg"
   xmlns="http://www.w3.org/2000/svg"
   xmlns:sodipodi="http://sodipodi.sourceforge.net/DTD/sodipodi-0.dtd"
   xmlns:inkscape="http://www.inkscape.org/namespaces/inkscape"
   version="1.1"
   id="Layer_1"
   x="0px"
   y="0px"
   viewBox="0 0 492.08212 502"
   enable-background="new 0 0 800 800"
   xml:space="preserve"
   sodipodi:docname="logo.svg"
   width="492.08212"
   height="502"
   inkscape:version="0.92.2 (5c3e80d, 2017-08-06)"><metadata
     id="metadata225"><rdf:RDF><cc:Work
         rdf:about=""><dc:format>image/svg+xml</dc:format><dc:type
           rdf:resource="http://purl.org/dc/dcmitype/StillImage" /><dc:title></dc:title></cc:Work></rdf:RDF></metadata><defs
     id="defs223" /><sodipodi:namedview
     pagecolor="#ffffff"
     bordercolor="#666666"
     borderopacity="1"
     objecttolerance="10"
     gridtolerance="10"
     guidetolerance="10"
     inkscape:pageopacity="0"
     inkscape:pageshadow="2"
     inkscape:window-width="2498"
     inkscape:window-height="1057"
     id="namedview221"
     showgrid="false"
     fit-margin-top="0"
     fit-margin-left="0"
     fit-margin-right="0"
     fit-margin-bottom="0"
     inkscape:zoom="0.295"
     inkscape:cx="246.09106"
     inkscape:cy="248.9"
     inkscape:window-x="54"
     inkscape:window-y="-8"
     inkscape:window-maximized="1"
     inkscape:current-layer="Layer_1" /><g
     id="g30"
     transform="translate(-153.90894,-146.9)"><path
       d="m 255.4,573.3 c -0.3,-0.1 -0.5,-0.2 -0.7,-0.3 -0.2,-0.1 -0.4,-0.3 -0.5,-0.5 0.5,-0.7 0.7,-1.6 0.6,-2.8 -0.1,-1.2 -0.4,-2.2 -1,-3.1 -0.2,-0.3 -0.5,-0.6 -0.9,-0.9 -0.4,-0.2 -0.8,-0.4 -1.3,-0.4 -1.7,-0.1 -3.1,0.5 -4.2,2 -1.1,1.4 -2,3.3 -2.7,5.6 -0.3,1.2 -0.6,2.6 -0.9,4 -0.3,1.4 -0.5,2.9 -0.6,4.4 -0.1,1.9 -0.2,3.8 -0.2,5.7 0,1.9 0.2,3.7 0.3,5.5 0.3,3.3 0.9,6 1.8,8.4 0.9,2.4 2,3.6 3.3,3.8 3.2,0.5 6,-0.6 8.5,-3.3 2.4,-2.8 4.2,-6.6 5.5,-11.6 0.4,0 1.1,0 1.9,0.1 -1.1,5.3 -3.2,9.6 -6.1,12.8 -2.6,2.9 -5.5,4.4 -8.8,4.4 -0.4,0 -0.9,0 -1.3,-0.1 -2.2,-0.3 -4,-1.3 -5.5,-3.1 -1.4,-1.8 -2.5,-4.1 -3.3,-6.8 -0.4,-1.4 -0.7,-3 -0.9,-4.6 -0.2,-1.6 -0.3,-3.3 -0.3,-5 v -0.2 c 0,-2 0.1,-4 0.4,-6 0.3,-2.1 0.7,-4 1.3,-5.9 1,-3.5 2.6,-6.4 4.6,-8.6 1.9,-2.1 4.1,-3.1 6.7,-3.1 0.2,0 0.5,0 0.8,0.1 0.6,0 1.2,0.2 1.7,0.5 0.5,0.3 0.9,0.6 1.3,1.1 0.9,1.1 1.5,2.4 1.6,4 0.1,1.6 -0.2,2.9 -1.1,3.9 z"
       id="path2"
       inkscape:connector-curvature="0"
       style="fill:#e6b545" /><path
       d="m 266.6,593.3 c 0.3,3.3 0.8,6.1 1.4,8.3 0.3,1.2 0.7,2.1 1.2,2.8 0.4,0.7 0.8,1.1 1.3,1.2 1,0.1 2.1,-0.8 3.1,-2.7 1.1,-2 2,-4.1 2.8,-6.3 0.5,-1.5 1,-2.8 1.3,-4.1 0.4,-1.3 0.6,-2.2 0.8,-2.7 0.4,0 1,0.1 1.8,0.1 -0.1,0.7 -0.5,2.2 -1,4.4 -0.6,2.1 -1.4,4.3 -2.3,6.5 -0.5,1.2 -1.1,2.3 -1.7,3.3 -0.6,1 -1.3,1.9 -2,2.6 -0.5,0.5 -1,0.9 -1.5,1.1 -0.4,0.2 -0.9,0.3 -1.3,0.3 h -0.3 c -0.8,-0.1 -1.5,-0.4 -2.2,-1 -0.7,-0.6 -1.3,-1.3 -1.8,-2.3 -1,-1.7 -1.9,-4 -2.6,-6.7 -0.7,-2.8 -1.1,-5.7 -1.4,-8.8 -0.1,-1.7 -0.2,-3.3 -0.2,-5 0,-2 0.1,-4 0.3,-6 0.4,-3.6 1.1,-6.5 2.3,-8.7 0.6,-1.2 1.4,-2.1 2.2,-2.7 0.7,-0.5 1.5,-0.8 2.3,-0.8 0.2,0 0.4,0 0.6,0.1 2,0.2 3.1,1.7 3.4,4.5 0.2,2.8 -0.3,5.9 -1.5,9.3 -0.7,1.8 -1.5,3.7 -2.6,5.5 -0.9,1.5 -1.8,2.9 -2.8,4.2 0.2,1.1 0.3,2.4 0.4,3.6 z m 1.1,-9 c 0.9,-1.7 1.7,-3.4 2.3,-5.1 1.1,-3.1 1.6,-5.8 1.6,-8.2 0,-2.4 -0.6,-3.6 -1.7,-3.6 -0.8,0 -1.5,0.7 -2,2.1 -0.5,1.4 -1,3.3 -1.2,5.6 -0.2,1.2 -0.3,2.5 -0.3,3.9 0,1.4 -0.1,2.9 -0.1,4.4 0,1.2 0,2.3 0.1,3.5 0.3,-0.9 0.8,-1.7 1.3,-2.6 z"
       id="path4"
       inkscape:connector-curvature="0"
       style="fill:#e6b545" /><path
       d="m 290.7,585.4 c -0.2,0.1 -0.4,0.1 -0.6,0.1 -0.2,0 -0.4,0 -0.6,0 0,-0.5 -0.4,-1.1 -1,-1.6 -0.7,-0.5 -1.5,-0.7 -2.6,-0.7 -1.2,0.1 -2.2,0.9 -3.1,2.3 -0.9,1.5 -1.6,3.2 -2.2,5.1 -0.6,2.3 -0.9,4.5 -0.9,6.6 0,2.1 0.5,3.2 1.3,3.3 0.9,0.1 2,-0.4 3.3,-1.5 1.4,-1.1 2.6,-2.3 3.8,-3.7 0.8,-0.9 1.5,-1.8 2,-2.7 0.6,-0.9 1,-1.6 1.2,-2.2 0.1,-0.9 0.2,-2.2 0.2,-4.1 0.5,-0.7 1.1,-1.1 1.8,-1.1 0.7,0 1.3,0 2,0.2 0.1,1.3 0.1,2.8 0.1,4.3 0,1.6 0,3.2 0.1,4.8 0.1,3 0.3,5.7 0.5,8.1 0.3,2.4 0.9,3.7 1.7,3.8 0.5,0.1 1,-0.5 1.5,-1.7 0.5,-1.2 1.1,-2.6 1.6,-4.3 0.6,-2.1 1.1,-4.1 1.6,-6.3 0.5,-2.1 0.8,-3.6 0.9,-4.3 0.4,0 1,0.1 1.9,0.2 -0.2,0.6 -0.4,1.8 -0.8,3.7 -0.4,1.9 -0.9,3.8 -1.5,5.9 -0.8,2.6 -1.7,4.9 -2.8,7 -1,1.9 -2.1,2.9 -3.3,2.8 h -0.3 c -1.2,-0.2 -2.2,-1.2 -2.9,-3.2 -0.7,-2 -1.3,-4.2 -1.7,-6.5 -0.2,-1.3 -0.3,-2.6 -0.5,-3.8 -0.1,-1.2 -0.2,-2.3 -0.3,-3.3 -0.3,0.5 -0.9,1.6 -2,3.3 -1,1.6 -2.3,3.2 -3.7,4.6 -0.9,1 -1.8,1.7 -2.8,2.3 -1,0.6 -2,0.9 -2.8,0.8 -0.7,-0.1 -1.3,-0.4 -1.8,-0.8 -0.5,-0.4 -0.9,-1 -1.2,-1.6 -0.4,-1 -0.6,-2.3 -0.6,-3.7 v -1.1 c 0.1,-1.9 0.5,-3.7 1.1,-5.6 0.8,-2.4 1.9,-4.5 3.3,-6.3 1.4,-1.8 3,-2.8 4.8,-2.8 h 0.2 c 1.4,0 2.6,0.4 3.4,1.3 1.3,1 1.7,1.8 1.7,2.4 z"
       id="path6"
       inkscape:connector-curvature="0"
       style="fill:#e6b545" /><path
       d="m 321.1,607.9 c 0.8,0.2 1.6,-0.8 2.4,-2.8 0.9,-2.1 1.7,-4.4 2.4,-6.9 0.5,-1.7 0.9,-3.3 1.2,-4.8 0.3,-1.5 0.6,-2.6 0.8,-3.4 0.2,0 0.6,-0.1 1,-0.1 0.4,0 0.7,0 0.9,0.1 -0.2,0.9 -0.4,2.1 -0.8,3.8 -0.3,1.7 -0.8,3.5 -1.3,5.4 -0.3,1 -0.6,2 -1,3 -0.3,1 -0.7,1.9 -1,2.8 -0.7,1.6 -1.5,2.9 -2.4,3.9 -0.7,0.8 -1.5,1.2 -2.3,1.2 -0.2,0 -0.4,0 -0.6,-0.1 -1.2,-0.3 -2.1,-1.2 -2.6,-2.8 -0.5,-1.5 -0.8,-3.2 -1,-5 -0.1,-1 -0.1,-2 -0.2,-3 0,-0.9 0,-1.8 -0.1,-2.6 -0.1,0.5 -0.5,1.4 -1.3,2.7 -0.7,1.3 -1.6,2.5 -2.6,3.5 -0.7,0.8 -1.4,1.4 -2.2,1.9 -0.7,0.5 -1.5,0.7 -2.2,0.7 -0.9,0 -1.7,-0.3 -2.3,-0.8 -0.6,-0.5 -1.1,-1.2 -1.5,-2 -0.8,-1.7 -1.3,-3.8 -1.5,-6.3 -0.2,-2.5 -0.3,-4.9 -0.5,-7.3 -0.1,-1.3 -0.2,-2.5 -0.3,-3.5 -0.2,-1.1 -0.4,-2 -0.6,-2.8 0.5,-0.4 1.2,-0.6 1.9,-0.6 h 0.2 c 0.6,0 1,0.2 1.3,0.5 0.5,1.2 0.8,2.8 1,4.6 0.2,1.8 0.3,3.7 0.5,5.6 0.2,2.8 0.3,5.4 0.6,7.7 0.2,2.3 0.8,3.5 1.7,3.5 0.7,0 1.6,-0.6 2.7,-1.9 1.1,-1.3 2.1,-2.7 3,-4.3 0.5,-1 1,-2.1 1.4,-3.1 0.4,-1 0.6,-1.8 0.6,-2.4 0,-1.2 0,-2.3 -0.1,-3.3 0,-0.9 0,-1.9 0,-3 0.5,-0.5 1.1,-0.7 1.9,-0.5 0.7,0.2 1.2,0.6 1.4,1 0,0.8 0,2.1 0,3.7 0,1.7 -0.1,3.4 -0.1,5.3 0,2.9 0.1,5.6 0.2,8.2 0.5,2.7 0.9,4.1 1.4,4.2 z"
       id="path8"
       inkscape:connector-curvature="0"
       style="fill:#e6b545" /><path
       d="m 330.8,585.5 c 1.9,1.1 3.8,2.6 5.9,4.5 2.1,1.9 3.5,4.6 4.3,8 0.7,-0.7 1.5,-1.4 2.2,-2.2 1,-1 1.8,-2 2.5,-3.1 0.7,-1 1.2,-2.1 1.5,-3.1 h 1.9 c -0.3,1.2 -0.8,2.5 -1.6,3.7 -0.8,1.2 -1.7,2.4 -2.7,3.5 -1.1,1.2 -2.2,2.3 -3.3,3.4 0,0.2 0,0.4 0.1,0.6 0.1,1 0.1,2 -0.1,3 -0.2,1.8 -0.6,3.3 -1.5,4.6 -0.8,1.4 -2.1,2.2 -3.7,2.5 -0.3,0.1 -0.7,0.1 -0.9,0.1 -1.3,0 -2.1,-0.6 -2.5,-1.9 -0.5,-1.5 -0.3,-2.9 0.6,-4.1 0.7,-1 2,-2.4 4.1,-4.1 h 0.1 c -0.2,-1.8 -0.6,-3.4 -1.2,-4.8 -0.6,-1.4 -1.3,-2.6 -2.1,-3.7 -1.3,-1.7 -2.6,-3.2 -4.1,-4.5 -0.1,0.8 -0.2,1.5 -0.3,2.2 -0.4,0 -1,-0.1 -1.9,-0.1 0.2,-1.1 0.4,-2.2 0.6,-3.3 -1.3,-1.1 -2.3,-2.3 -2.9,-3.4 -0.2,-0.5 -0.4,-0.9 -0.5,-1.3 0,-0.2 -0.1,-0.5 -0.1,-0.7 V 581 c 0.2,-1.1 0.8,-1.9 1.9,-2.3 0.3,-0.1 0.6,-0.2 0.9,-0.2 0.7,0 1.3,0.4 1.8,1.1 0.8,1 1.1,2.7 0.9,4.9 0,0.3 -0.1,0.6 -0.1,0.9 0,0.1 0.1,0.1 0.2,0.1 z m -2.5,-4.5 c -0.5,-0.8 -1,-0.8 -1.5,-0.2 -0.5,0.6 -0.5,1.3 -0.1,2 0.2,0.4 0.7,0.8 1.4,1.3 0.2,0.1 0.4,0.3 0.6,0.4 0.2,-1.7 0.1,-2.9 -0.4,-3.5 z m 6.8,24.9 c -0.7,1.1 -1,2.1 -0.6,2.9 0.3,0.8 0.9,1.1 1.7,0.9 0.6,-0.1 1,-1 1.2,-2.8 0.1,-1.1 0.2,-2.2 0.2,-3.4 -1.3,1.1 -2.1,1.9 -2.5,2.4 z"
       id="path10"
       inkscape:connector-curvature="0"
       style="fill:#e6b545" /><path
       d="m 383.7,573.8 c -0.3,0.1 -0.6,0.1 -1,0 -0.3,-0.1 -0.5,-0.3 -0.6,-0.6 0.3,-0.5 0.5,-1.3 0.7,-2.4 0.2,-1.1 0.1,-2.1 -0.2,-3.1 -0.2,-0.5 -0.4,-1 -0.7,-1.5 -0.3,-0.4 -0.7,-0.7 -1.3,-0.9 -1.2,-0.5 -2.3,-0.4 -3.4,0.2 -1.1,0.6 -1.9,1.6 -2.4,2.8 -0.3,0.7 -0.5,1.4 -0.5,2.2 0,0.8 0.1,1.6 0.3,2.5 0.3,0.9 0.8,1.9 1.7,3 0.9,1.1 1.8,2.2 2.9,3.5 2.1,2.3 4.2,4.9 6.3,7.8 1.5,2.1 2.6,4.2 3.1,6.6 1.1,-0.2 2.1,-0.4 3.1,-0.6 2.8,-0.5 4.3,-1.6 4.6,-3.2 h 1 c 0.3,0 0.6,0.1 0.8,0.1 -0.2,1 -0.7,1.9 -1.6,2.6 -0.9,0.7 -2,1.3 -3.4,1.7 -1.3,0.5 -2.8,0.9 -4.4,1.2 0,0.4 0.1,0.8 0.1,1.1 0.1,2.3 -0.1,4.3 -0.8,5.9 -0.7,1.7 -1.5,3.1 -2.6,4.2 -0.9,0.9 -1.9,1.6 -3,2.2 -1.1,0.5 -2.2,0.9 -3.4,1.2 -1,0.2 -2,0.3 -3,0.3 -1.1,0 -2.2,-0.1 -3.4,-0.4 -2.1,-0.5 -3.7,-1.5 -4.8,-2.9 -0.5,-0.7 -0.9,-1.5 -1.2,-2.4 -0.1,-0.4 -0.1,-0.9 -0.1,-1.3 0,-0.5 0.1,-1.1 0.2,-1.7 0.3,-1.2 0.9,-2.2 1.9,-3 0.9,-0.8 2.1,-1.4 3.5,-2 1.4,-0.5 3,-1 4.8,-1.3 1.7,-0.3 3.5,-0.6 5.3,-0.8 l 1.6,-0.2 c -0.2,-1 -0.5,-2.1 -1,-3.1 -0.7,-1.5 -1.6,-2.9 -2.6,-4.3 -1.9,-2.5 -3.9,-4.8 -6.2,-6.9 -2.2,-2.1 -3.7,-4.3 -4.4,-6.4 -0.4,-1.3 -0.5,-2.5 -0.3,-3.6 0.2,-1.1 0.6,-2.1 1.1,-3 1.1,-1.6 2.6,-2.7 4.6,-3.3 0.9,-0.3 1.8,-0.5 2.7,-0.5 1,0 2,0.2 2.9,0.6 0.8,0.3 1.5,0.8 2,1.3 0.5,0.5 0.9,1.1 1.2,1.8 0.5,1.2 0.6,2.4 0.3,3.7 0.3,1.3 0,2.3 -0.4,2.9 z m -9.3,24.5 c -1.5,0.4 -2.8,1 -3.8,1.6 -1,0.6 -1.6,1.4 -1.9,2.4 -0.4,1.6 -0.2,3 0.6,4 0.9,1 2,1.7 3.4,2 0.8,0.2 1.6,0.2 2.4,0.2 0.9,0 1.7,-0.2 2.6,-0.5 0.8,-0.3 1.6,-0.7 2.3,-1.2 0.8,-0.5 1.5,-1.1 2,-1.9 0.8,-1 1.5,-2.2 1.9,-3.6 0.4,-1.4 0.6,-3.1 0.5,-5 l -0.5,0.1 c -3.6,0.5 -6.8,1.1 -9.5,1.9 z"
       id="path12"
       inkscape:connector-curvature="0"
       style="fill:#e6b545" /><path
       d="m 409.4,585.4 c -0.2,0.1 -0.4,0.1 -0.6,0.1 -0.2,0 -0.4,0 -0.6,0 0,-0.5 -0.4,-1.1 -1,-1.6 -0.7,-0.5 -1.5,-0.7 -2.6,-0.7 -1.2,0.1 -2.2,0.9 -3.1,2.3 -0.9,1.5 -1.6,3.2 -2.1,5.1 -0.6,2.3 -0.9,4.5 -0.9,6.6 0,2.1 0.5,3.2 1.3,3.3 0.9,0.1 2,-0.4 3.3,-1.5 1.4,-1.1 2.6,-2.3 3.8,-3.7 0.8,-0.9 1.5,-1.8 2,-2.7 0.6,-0.9 1,-1.6 1.2,-2.2 0.1,-0.9 0.2,-2.2 0.2,-4.1 0.5,-0.7 1.1,-1.1 1.8,-1.1 0.7,0 1.3,0 2,0.2 0.1,1.3 0.1,2.8 0.1,4.3 0,1.6 0,3.2 0.1,4.8 0.1,3 0.3,5.7 0.5,8.1 0.3,2.4 0.9,3.7 1.7,3.8 0.5,0.1 1,-0.5 1.5,-1.7 0.5,-1.2 1.1,-2.6 1.6,-4.3 0.6,-2.1 1.1,-4.1 1.6,-6.3 0.5,-2.1 0.8,-3.6 0.9,-4.3 0.4,0 1,0.1 1.9,0.2 -0.2,0.6 -0.4,1.8 -0.8,3.7 -0.4,1.9 -0.9,3.8 -1.5,5.9 -0.8,2.6 -1.7,4.9 -2.8,7 -1,1.9 -2.1,2.9 -3.3,2.8 h -0.3 c -1.2,-0.2 -2.2,-1.2 -2.9,-3.2 -0.7,-2 -1.3,-4.2 -1.7,-6.5 -0.2,-1.3 -0.3,-2.6 -0.5,-3.8 -0.1,-1.2 -0.2,-2.3 -0.3,-3.3 -0.3,0.5 -0.9,1.6 -2,3.3 -1,1.6 -2.3,3.2 -3.7,4.6 -0.9,1 -1.8,1.7 -2.8,2.3 -1,0.6 -2,0.9 -2.8,0.8 -0.7,-0.1 -1.3,-0.4 -1.8,-0.8 -0.5,-0.4 -0.9,-1 -1.2,-1.6 -0.4,-1 -0.6,-2.3 -0.6,-3.7 v -1.1 c 0.1,-1.9 0.5,-3.7 1.1,-5.6 0.8,-2.4 1.9,-4.5 3.3,-6.3 1.4,-1.8 3,-2.8 4.8,-2.8 h 0.2 c 1.4,0 2.6,0.4 3.4,1.3 1.2,1 1.6,1.8 1.6,2.4 z"
       id="path14"
       inkscape:connector-curvature="0"
       style="fill:#e6b545" /><path
       d="m 425.5,593.3 c 0.3,3.3 0.8,6.1 1.4,8.3 0.3,1.2 0.7,2.1 1.2,2.8 0.4,0.7 0.8,1.1 1.3,1.2 1,0.1 2.1,-0.8 3.1,-2.7 1.1,-2 2,-4.1 2.8,-6.3 0.5,-1.5 1,-2.8 1.3,-4.1 0.4,-1.3 0.6,-2.2 0.8,-2.7 0.4,0 1,0.1 1.8,0.1 -0.1,0.7 -0.5,2.2 -1,4.4 -0.6,2.1 -1.4,4.3 -2.3,6.5 -0.5,1.2 -1.1,2.3 -1.7,3.3 -0.6,1 -1.3,1.9 -2,2.6 -0.5,0.5 -1,0.9 -1.5,1.1 -0.4,0.2 -0.9,0.3 -1.3,0.3 h -0.3 c -0.8,-0.1 -1.5,-0.4 -2.2,-1 -0.7,-0.6 -1.3,-1.3 -1.8,-2.3 -1,-1.7 -1.9,-4 -2.6,-6.7 -0.7,-2.8 -1.1,-5.7 -1.4,-8.8 -0.1,-1.7 -0.2,-3.3 -0.2,-5 0,-2 0.1,-4 0.3,-6 0.4,-3.6 1.1,-6.5 2.3,-8.7 0.6,-1.2 1.4,-2.1 2.2,-2.7 0.7,-0.5 1.5,-0.8 2.3,-0.8 0.2,0 0.4,0 0.6,0.1 2,0.2 3.1,1.7 3.4,4.5 0.2,2.8 -0.3,5.9 -1.5,9.3 -0.7,1.8 -1.5,3.7 -2.6,5.5 -0.9,1.5 -1.8,2.9 -2.8,4.2 0.1,1.1 0.2,2.4 0.4,3.6 z m 1,-9 c 0.9,-1.7 1.7,-3.4 2.3,-5.1 1.1,-3.1 1.6,-5.8 1.6,-8.2 0,-2.4 -0.6,-3.6 -1.7,-3.6 -0.8,0 -1.5,0.7 -2,2.1 -0.5,1.4 -0.9,3.3 -1.2,5.6 -0.2,1.2 -0.3,2.5 -0.3,3.9 0,1.4 -0.1,2.9 -0.1,4.4 0,1.2 0,2.3 0.1,3.5 0.3,-0.9 0.8,-1.7 1.3,-2.6 z"
       id="path16"
       inkscape:connector-curvature="0"
       style="fill:#e6b545" /><path
       d="m 455.6,607.9 c 0.8,0.2 1.6,-0.8 2.4,-2.8 0.9,-2.1 1.7,-4.4 2.4,-6.9 0.5,-1.7 0.9,-3.3 1.2,-4.8 0.3,-1.5 0.6,-2.6 0.8,-3.4 0.2,0 0.6,-0.1 1,-0.1 0.4,0 0.7,0 0.9,0.1 -0.2,0.9 -0.4,2.1 -0.8,3.8 -0.3,1.7 -0.8,3.5 -1.3,5.4 -0.3,1 -0.6,2 -1,3 -0.3,1 -0.7,1.9 -1,2.8 -0.7,1.6 -1.5,2.9 -2.4,3.9 -0.7,0.8 -1.5,1.2 -2.3,1.2 -0.2,0 -0.4,0 -0.6,-0.1 -1.2,-0.3 -2.1,-1.2 -2.6,-2.8 -0.5,-1.5 -0.8,-3.2 -1,-5 -0.1,-1 -0.1,-2 -0.2,-3 0,-0.9 0,-1.8 -0.1,-2.6 -0.1,0.5 -0.5,1.4 -1.3,2.7 -0.7,1.3 -1.6,2.5 -2.6,3.5 -0.7,0.8 -1.4,1.4 -2.2,1.9 -0.7,0.5 -1.5,0.7 -2.2,0.7 -0.9,0 -1.7,-0.3 -2.3,-0.8 -0.6,-0.5 -1.1,-1.2 -1.5,-2 -0.8,-1.7 -1.3,-3.8 -1.5,-6.3 -0.2,-2.5 -0.3,-4.9 -0.5,-7.3 -0.1,-1.3 -0.2,-2.5 -0.3,-3.5 -0.2,-1.1 -0.4,-2 -0.6,-2.8 0.5,-0.4 1.2,-0.6 1.9,-0.6 h 0.2 c 0.6,0 1,0.2 1.3,0.5 0.5,1.2 0.8,2.8 1,4.6 0.2,1.8 0.3,3.7 0.5,5.6 0.2,2.8 0.3,5.4 0.6,7.7 0.2,2.3 0.8,3.5 1.7,3.5 0.7,0 1.6,-0.6 2.7,-1.9 1.1,-1.3 2.1,-2.7 3,-4.3 0.5,-1 1,-2.1 1.4,-3.1 0.4,-1 0.6,-1.8 0.6,-2.4 0,-1.2 0,-2.3 -0.1,-3.3 0,-0.9 0,-1.9 0,-3 0.5,-0.5 1.1,-0.7 1.9,-0.5 0.7,0.2 1.2,0.6 1.4,1 0,0.8 0,2.1 0,3.7 0,1.7 -0.1,3.4 -0.1,5.3 0,2.9 0.1,5.6 0.2,8.2 0.5,2.7 0.9,4.1 1.4,4.2 z"
       id="path18"
       inkscape:connector-curvature="0"
       style="fill:#e6b545" /><path
       d="m 473.5,587.5 c -0.2,0.1 -0.4,0.1 -0.6,0.1 -0.2,0 -0.4,0 -0.6,0 0,-0.5 -0.4,-1.1 -1,-1.6 -0.7,-0.5 -1.5,-0.8 -2.5,-0.8 -1.2,0.1 -2.3,0.9 -3.1,2.3 -0.8,1.5 -1.3,3.2 -1.7,5.1 -0.4,2.4 -0.5,4.6 -0.3,6.7 0.2,2.1 0.8,3.2 1.6,3.3 0.9,0.1 1.9,-0.5 3.1,-1.7 1.2,-1.3 2.3,-2.7 3.3,-4.3 0.7,-1.1 1.3,-2.1 1.7,-3.1 0.5,-1 0.8,-1.8 0.9,-2.4 -0.1,-5.3 -0.2,-13.2 -0.3,-23.7 0.4,-0.5 0.8,-0.8 1.3,-0.8 0.2,0 0.5,0 0.8,0.1 0.8,0.3 1.3,0.7 1.6,1.2 -0.2,0.6 -0.3,2.6 -0.3,6.1 0,3.5 0.1,7.4 0.2,11.7 0,1.9 0.1,3.7 0.3,5.6 0.1,1.8 0.2,3.6 0.3,5.2 0.2,3.1 0.5,5.8 0.9,7.9 0.3,2.1 0.8,3.3 1.3,3.4 0.5,0.1 1,-0.5 1.5,-1.9 0.6,-1.3 1.2,-2.9 1.7,-4.7 0.7,-2.2 1.3,-4.5 1.8,-6.8 0.5,-2.3 0.8,-3.8 1,-4.5 0.4,0 1.1,0.1 1.9,0.1 -0.1,0.7 -0.4,2 -0.8,3.9 -0.4,1.9 -0.9,4 -1.6,6.2 -0.8,2.7 -1.7,5.1 -2.8,7.3 -1,1.9 -2,2.9 -3.2,2.9 -0.1,0 -0.3,0 -0.4,-0.1 -1.2,-0.2 -2.1,-1.2 -2.8,-3.1 -0.7,-1.9 -1.3,-3.9 -1.7,-6 -0.2,-1.2 -0.4,-2.3 -0.5,-3.4 -0.1,-1.1 -0.2,-2.1 -0.3,-3 -0.2,0.5 -0.7,1.6 -1.5,3.1 -0.9,1.6 -1.9,3.1 -3,4.4 -0.8,0.9 -1.7,1.7 -2.6,2.3 -0.9,0.6 -1.8,0.8 -2.7,0.6 -1.7,-0.2 -2.8,-1.2 -3.4,-3.1 -0.5,-1.4 -0.7,-2.9 -0.7,-4.6 0,-0.5 0,-1.1 0.1,-1.7 0.2,-1.9 0.6,-3.7 1.3,-5.5 0.7,-1.8 1.6,-3.3 2.7,-4.4 0.6,-0.6 1.3,-1.1 2,-1.5 0.7,-0.3 1.5,-0.5 2.3,-0.5 1.5,0 2.7,0.4 3.5,1.3 0.9,1 1.3,1.7 1.3,2.4 z"
       id="path20"
       inkscape:connector-curvature="0"
       style="fill:#e6b545" /><path
       d="m 498.6,585.4 c -0.2,0.1 -0.4,0.1 -0.6,0.1 -0.2,0 -0.4,0 -0.6,0 0,-0.5 -0.4,-1.1 -1,-1.6 -0.7,-0.5 -1.5,-0.7 -2.6,-0.7 -1.2,0.1 -2.2,0.9 -3.1,2.3 -0.9,1.5 -1.6,3.2 -2.2,5.1 -0.6,2.3 -0.9,4.5 -0.9,6.6 0,2.1 0.5,3.2 1.3,3.3 0.9,0.1 2,-0.4 3.3,-1.5 1.4,-1.1 2.6,-2.3 3.8,-3.7 0.8,-0.9 1.5,-1.8 2,-2.7 0.6,-0.9 1,-1.6 1.2,-2.2 0.1,-0.9 0.2,-2.2 0.2,-4.1 0.5,-0.7 1.1,-1.1 1.8,-1.1 0.7,0 1.3,0 2,0.2 0.1,1.3 0.1,2.8 0.1,4.3 0,1.6 0,3.2 0.1,4.8 0.1,3 0.3,5.7 0.5,8.1 0.3,2.4 0.9,3.7 1.7,3.8 0.5,0.1 1,-0.5 1.5,-1.7 0.5,-1.2 1.1,-2.6 1.6,-4.3 0.6,-2.1 1.1,-4.1 1.6,-6.3 0.5,-2.1 0.8,-3.6 0.9,-4.3 0.4,0 1,0.1 1.9,0.2 -0.2,0.6 -0.4,1.8 -0.8,3.7 -0.4,1.9 -0.9,3.8 -1.5,5.9 -0.8,2.6 -1.7,4.9 -2.8,7 -1,1.9 -2.1,2.9 -3.3,2.8 h -0.3 c -1.2,-0.2 -2.2,-1.2 -2.9,-3.2 -0.7,-2 -1.3,-4.2 -1.7,-6.5 -0.2,-1.3 -0.3,-2.6 -0.5,-3.8 -0.1,-1.2 -0.2,-2.3 -0.3,-3.3 -0.3,0.5 -0.9,1.6 -2,3.3 -1,1.6 -2.3,3.2 -3.7,4.6 -0.9,1 -1.8,1.7 -2.8,2.3 -1,0.6 -2,0.9 -2.8,0.8 -0.7,-0.1 -1.3,-0.4 -1.8,-0.8 -0.5,-0.4 -0.9,-1 -1.2,-1.6 -0.4,-1 -0.6,-2.3 -0.6,-3.7 v -1.1 c 0.1,-1.9 0.5,-3.7 1.1,-5.6 0.8,-2.4 1.9,-4.5 3.3,-6.3 1.4,-1.8 3,-2.8 4.8,-2.8 h 0.2 c 1.4,0 2.6,0.4 3.4,1.3 1.2,1 1.7,1.8 1.7,2.4 z"
       id="path22"
       inkscape:connector-curvature="0"
       style="fill:#e6b545" /><path
       d="m 509.7,568.8 c 0.6,-0.8 1.2,-1.3 1.8,-1.5 0.4,-0.1 0.8,-0.1 1.1,-0.1 0.3,0 0.6,0 0.9,0.1 0.3,5 0.5,9.9 0.5,14.8 0,4.9 0,9.8 0.1,14.8 0.2,-0.7 0.6,-1.9 1.2,-3.4 0.6,-1.5 1.4,-3 2.4,-4.2 0.6,-0.9 1.3,-1.6 2.1,-2.2 0.8,-0.6 1.6,-0.9 2.5,-0.8 1,0 1.9,0.3 2.6,0.7 0.7,0.4 1.3,1 1.8,1.7 0.8,1.2 1.3,2.6 1.5,4.3 0.2,1.7 0.2,3.4 -0.1,5.2 0,0.3 -0.1,0.7 -0.2,1 0.6,-0.5 1.3,-1.1 1.9,-1.7 1.3,-1.2 2.4,-2.4 3.4,-3.7 1,-1.2 1.7,-2.4 2,-3.6 0.4,0 1.1,0 2,-0.1 -0.3,1.4 -1.1,2.8 -2.2,4.2 -1.1,1.5 -2.3,2.9 -3.8,4.2 -1.4,1.4 -2.8,2.6 -4.2,3.8 -0.4,1.2 -0.9,2.3 -1.5,3.3 -1.2,2.2 -2.7,3.5 -4.4,3.8 H 521 c -0.8,0 -1.3,-0.4 -1.6,-1.2 -0.4,-0.9 0,-1.9 1.2,-3.1 0.4,-0.4 1.4,-1.3 3,-2.5 0.2,-1 0.4,-2.2 0.6,-3.3 0.3,-2.6 0.3,-5 0.1,-7.3 -0.2,-2.3 -1,-3.5 -2.3,-3.5 -1,0 -2.1,0.7 -3.1,2.2 -1,1.5 -2,3.1 -2.8,4.8 -0.5,1.2 -0.9,2.3 -1.3,3.3 -0.4,1 -0.6,1.9 -0.7,2.4 0,1.2 0.1,3 0.1,5.5 -0.8,0.4 -1.6,0.5 -2.3,0.5 -0.7,0 -1.4,-0.5 -2,-1.3 0.2,-0.4 0.3,-1 0.4,-1.7 0.1,-0.8 0.2,-1.8 0.2,-3 0.1,-2.1 0.2,-4.7 0.1,-7.7 0,-3 -0.1,-6.2 -0.3,-9.4 -0.1,-2.7 -0.2,-5.3 -0.3,-7.9 -0.1,-2.9 -0.2,-5.3 -0.3,-7.4 z m 11.7,37.8 c -0.4,0.3 -0.5,0.6 -0.4,0.9 0.1,0.3 0.4,0.3 0.9,0.1 0.3,-0.1 0.7,-0.8 1,-2.2 -0.7,0.5 -1.3,1 -1.5,1.2 z"
       id="path24"
       inkscape:connector-curvature="0"
       style="fill:#e6b545" /><path
       d="m 538.5,593.3 c 0.3,3.3 0.8,6.1 1.4,8.3 0.3,1.2 0.7,2.1 1.2,2.8 0.4,0.7 0.8,1.1 1.3,1.2 1,0.1 2.1,-0.8 3.1,-2.7 1.1,-2 2,-4.1 2.8,-6.3 0.5,-1.5 1,-2.8 1.3,-4.1 0.4,-1.3 0.6,-2.2 0.8,-2.7 0.4,0 1,0.1 1.8,0.1 -0.1,0.7 -0.5,2.2 -1,4.4 -0.6,2.1 -1.4,4.3 -2.3,6.5 -0.5,1.2 -1.1,2.3 -1.7,3.3 -0.6,1 -1.3,1.9 -2,2.6 -0.5,0.5 -1,0.9 -1.5,1.1 -0.4,0.2 -0.9,0.3 -1.3,0.3 h -0.3 c -0.8,-0.1 -1.5,-0.4 -2.2,-1 -0.7,-0.6 -1.3,-1.3 -1.8,-2.3 -1,-1.7 -1.9,-4 -2.6,-6.7 -0.7,-2.8 -1.1,-5.7 -1.4,-8.8 -0.1,-1.7 -0.2,-3.3 -0.2,-5 0,-2 0.1,-4 0.3,-6 0.4,-3.6 1.1,-6.5 2.3,-8.7 0.6,-1.2 1.4,-2.1 2.2,-2.7 0.7,-0.5 1.5,-0.8 2.3,-0.8 0.2,0 0.4,0 0.6,0.1 2,0.2 3.1,1.7 3.4,4.5 0.2,2.8 -0.3,5.9 -1.5,9.3 -0.7,1.8 -1.5,3.7 -2.6,5.5 -0.9,1.5 -1.8,2.9 -2.8,4.2 0.1,1.1 0.2,2.4 0.4,3.6 z m 1,-9 c 0.9,-1.7 1.7,-3.4 2.3,-5.1 1.1,-3.1 1.6,-5.8 1.6,-8.2 0,-2.4 -0.6,-3.6 -1.7,-3.6 -0.8,0 -1.5,0.7 -2,2.1 -0.5,1.4 -0.9,3.3 -1.2,5.6 -0.2,1.2 -0.3,2.5 -0.3,3.9 0,1.4 -0.1,2.9 -0.1,4.4 0,1.2 0,2.3 0.1,3.5 0.4,-0.9 0.9,-1.7 1.3,-2.6 z"
       id="path26"
       inkscape:connector-curvature="0"
       style="fill:#e6b545" /><path
       d="m 552.4,596.4 c 0.3,2.5 0.9,4.8 1.7,6.8 0.8,2 1.8,3.1 3,3.3 0.9,0.1 1.8,0 2.6,-0.5 0.8,-0.4 1.6,-1 2.3,-1.9 0.6,-0.6 1.1,-1.4 1.6,-2.2 0.5,-0.8 1,-1.7 1.4,-2.6 0.9,-1.7 1.5,-3.4 2.1,-5.1 0.6,-1.7 1,-3.2 1.3,-4.3 0.3,-0.1 0.6,-0.1 0.9,-0.1 0.3,0 0.6,0 0.9,0.1 -0.3,1.3 -0.7,2.9 -1.3,4.9 -0.6,1.9 -1.4,3.9 -2.3,5.8 -0.5,1 -1.1,2 -1.7,3 -0.6,0.9 -1.3,1.7 -2,2.4 -0.9,0.9 -1.8,1.6 -2.8,2 -0.7,0.3 -1.5,0.5 -2.4,0.5 -0.3,0 -0.6,0 -0.9,-0.1 -1.3,-0.2 -2.4,-0.6 -3.4,-1.2 -1,-0.6 -1.8,-1.3 -2.5,-2.3 -1.1,-1.5 -1.8,-3.2 -2.2,-5.2 -0.3,-1.4 -0.4,-2.8 -0.4,-4.2 0,-0.6 0,-1.2 0.1,-1.9 0.3,-3.1 1.1,-5.9 2.4,-8.3 1.4,-2.4 3.1,-3.6 5.2,-3.7 h 0.1 c 1,0 1.8,0.2 2.6,0.5 0.8,0.3 1.4,0.8 1.9,1.4 0.9,1.1 1.4,2.4 1.3,4 -0.1,1.5 -0.7,2.9 -1.9,4.2 -0.8,0.8 -1.9,1.4 -3.3,1.9 -1.3,0.5 -2.8,0.7 -4.5,0.7 0.1,0.7 0.1,1.4 0.2,2.1 z m 3.9,-4.2 c 1.2,-0.5 2.2,-1.1 2.7,-1.9 1.1,-1.4 1.3,-3 0.6,-4.6 -0.7,-1.7 -1.8,-2.5 -3.3,-2.4 -1.2,0 -2.2,0.7 -2.8,2 -0.7,1.3 -1.1,2.8 -1.3,4.7 -0.1,0.9 -0.1,1.9 -0.1,2.9 1.7,0 3.1,-0.2 4.2,-0.7 z"
       id="path28"
       inkscape:connector-curvature="0"
       style="fill:#e6b545" /></g><g
     id="g70"
     transform="translate(-153.90894,-146.9)"><path
       d="m 274.8,635.1 h 1.5 v 5.9 h 7.7 v -5.9 h 1.5 v 13.3 H 284 v -6 h -7.7 v 6 h -1.5 z"
       id="path32"
       inkscape:connector-curvature="0"
       style="fill:#51514d" /><path
       d="m 289.3,635.1 h 9.6 v 1.4 h -8.1 v 4.6 h 7.3 v 1.4 h -7.3 v 4.7 h 8.2 v 1.4 h -9.7 z"
       id="path34"
       inkscape:connector-curvature="0"
       style="fill:#51514d" /><path
       d="m 307,635 h 1.4 l 6.1,13.4 h -1.6 l -1.6,-3.5 H 304 l -1.6,3.5 h -1.5 z m 3.7,8.5 -3,-6.8 -3,6.8 z"
       id="path36"
       inkscape:connector-curvature="0"
       style="fill:#51514d" /><path
       d="m 317.1,635.1 h 1.5 V 647 h 7.5 v 1.4 h -9 z"
       id="path38"
       inkscape:connector-curvature="0"
       style="fill:#51514d" /><path
       d="M 330.5,636.5 H 326 v -1.4 h 10.5 v 1.4 H 332 v 11.9 h -1.5 z"
       id="path40"
       inkscape:connector-curvature="0"
       style="fill:#51514d" /><path
       d="m 339.3,635.1 h 1.5 v 5.9 h 7.7 v -5.9 h 1.5 v 13.3 h -1.5 v -6 h -7.7 v 6 h -1.5 z"
       id="path42"
       inkscape:connector-curvature="0"
       style="fill:#51514d" /><path
       d="m 367.1,646.5 c -1.2,1.3 -2.6,2.1 -4.4,2.1 -2.4,0 -4.2,-1.5 -4.2,-3.7 v 0 c 0,-1.8 1.2,-3 3.2,-3.8 -0.9,-1.1 -1.3,-1.9 -1.3,-2.9 v 0 c 0,-1.8 1.4,-3.2 3.5,-3.2 1.9,0 3.2,1.4 3.2,3 v 0 c 0,1.7 -1.2,2.8 -3.1,3.5 l 3,3.1 c 0.6,-0.9 1.1,-1.9 1.6,-3 l 1.2,0.6 c -0.6,1.3 -1.2,2.4 -1.9,3.4 l 2.3,2.4 -1.1,0.9 z m -1,-0.9 -3.6,-3.7 c -1.8,0.6 -2.6,1.7 -2.6,2.9 v 0 c 0,1.4 1.1,2.5 2.8,2.5 1.4,0 2.5,-0.6 3.4,-1.7 z m -0.4,-7.6 v 0 c 0,-1.1 -0.8,-1.9 -1.9,-1.9 -1.2,0 -2,0.8 -2,1.9 v 0 c 0,0.8 0.3,1.4 1.3,2.5 1.8,-0.6 2.6,-1.4 2.6,-2.5 z"
       id="path44"
       inkscape:connector-curvature="0"
       style="fill:#51514d" /><path
       d="m 378.5,635.1 h 9.6 v 1.4 H 380 v 4.8 h 7.2 v 1.4 H 380 v 5.8 h -1.5 z"
       id="path46"
       inkscape:connector-curvature="0"
       style="fill:#51514d" /><path
       d="m 391.1,635.1 h 1.5 v 13.3 h -1.5 z"
       id="path48"
       inkscape:connector-curvature="0"
       style="fill:#51514d" /><path
       d="m 400.1,636.5 h -4.5 v -1.4 h 10.5 v 1.4 h -4.5 v 11.9 h -1.5 z"
       id="path50"
       inkscape:connector-curvature="0"
       style="fill:#51514d" /><path
       d="m 408.9,635.1 h 1.4 l 8.4,10.7 v -10.7 h 1.5 v 13.3 H 419 l -8.6,-10.9 v 10.9 h -1.5 z"
       id="path52"
       inkscape:connector-curvature="0"
       style="fill:#51514d" /><path
       d="m 423.9,635.1 h 9.6 v 1.4 h -8.1 v 4.6 h 7.3 v 1.4 h -7.3 v 4.7 h 8.2 v 1.4 h -9.7 z"
       id="path54"
       inkscape:connector-curvature="0"
       style="fill:#51514d" /><path
       d="m 435.8,646.5 0.9,-1.1 c 1.4,1.3 2.7,1.9 4.6,1.9 1.8,0 3,-1 3,-2.3 v 0 c 0,-1.2 -0.7,-1.9 -3.5,-2.5 -3.1,-0.7 -4.5,-1.7 -4.5,-3.9 v 0 c 0,-2.1 1.8,-3.6 4.4,-3.6 1.9,0 3.3,0.6 4.7,1.6 l -0.9,1.2 c -1.2,-1 -2.5,-1.4 -3.8,-1.4 -1.7,0 -2.8,1 -2.8,2.2 v 0 c 0,1.3 0.7,2 3.6,2.6 3,0.6 4.3,1.7 4.3,3.8 v 0 c 0,2.3 -1.9,3.8 -4.6,3.8 -2,-0.2 -3.8,-0.9 -5.4,-2.3 z"
       id="path56"
       inkscape:connector-curvature="0"
       style="fill:#51514d" /><path
       d="m 447.8,646.5 0.9,-1.1 c 1.4,1.3 2.7,1.9 4.6,1.9 1.8,0 3,-1 3,-2.3 v 0 c 0,-1.2 -0.7,-1.9 -3.5,-2.5 -3.1,-0.7 -4.5,-1.7 -4.5,-3.9 v 0 c 0,-2.1 1.8,-3.6 4.4,-3.6 1.9,0 3.3,0.6 4.7,1.6 l -0.9,1.2 c -1.2,-1 -2.5,-1.4 -3.8,-1.4 -1.7,0 -2.8,1 -2.8,2.2 v 0 c 0,1.3 0.7,2 3.6,2.6 3,0.6 4.3,1.7 4.3,3.8 v 0 c 0,2.3 -1.9,3.8 -4.6,3.8 -2,-0.2 -3.8,-0.9 -5.4,-2.3 z"
       id="path58"
       inkscape:connector-curvature="0"
       style="fill:#51514d" /><path
       d="m 466,641.8 v 0 c 0,-3.8 2.8,-6.9 6.7,-6.9 2.4,0 3.9,0.9 5.2,2.1 l -1,1.1 c -1.1,-1.1 -2.4,-1.8 -4.2,-1.8 -3,0 -5.2,2.4 -5.2,5.5 v 0 c 0,3.1 2.2,5.5 5.2,5.5 1.8,0 3,-0.7 4.3,-1.9 l 1,1 c -1.4,1.4 -2.9,2.3 -5.3,2.3 -3.8,-0.1 -6.7,-3.1 -6.7,-6.9 z"
       id="path60"
       inkscape:connector-curvature="0"
       style="fill:#51514d" /><path
       d="m 479.7,641.8 v 0 c 0,-3.7 2.8,-6.9 6.8,-6.9 4.1,0 6.8,3.2 6.8,6.9 v 0 c 0,3.7 -2.8,6.9 -6.8,6.9 -4.1,-0.1 -6.8,-3.2 -6.8,-6.9 z m 12.1,0 v 0 c 0,-3.1 -2.2,-5.5 -5.3,-5.5 -3,0 -5.2,2.4 -5.2,5.5 v 0 c 0,3 2.2,5.5 5.3,5.5 3,-0.1 5.2,-2.5 5.2,-5.5 z"
       id="path62"
       inkscape:connector-curvature="0"
       style="fill:#51514d" /><path
       d="m 500.7,635 h 1.4 l 6.1,13.4 h -1.6 l -1.6,-3.5 h -7.3 l -1.6,3.5 h -1.5 z m 3.7,8.5 -3,-6.8 -3,6.8 z"
       id="path64"
       inkscape:connector-curvature="0"
       style="fill:#51514d" /><path
       d="m 509.4,641.8 v 0 c 0,-3.8 2.8,-6.9 6.7,-6.9 2.4,0 3.9,0.9 5.2,2.1 l -1,1.1 c -1.1,-1.1 -2.4,-1.8 -4.2,-1.8 -3,0 -5.2,2.4 -5.2,5.5 v 0 c 0,3.1 2.2,5.5 5.2,5.5 1.8,0 3,-0.7 4.3,-1.9 l 1,1 c -1.4,1.4 -2.9,2.3 -5.3,2.3 -3.9,-0.1 -6.7,-3.1 -6.7,-6.9 z"
       id="path66"
       inkscape:connector-curvature="0"
       style="fill:#51514d" /><path
       d="m 524.1,635.1 h 1.5 v 5.9 h 7.7 v -5.9 h 1.5 v 13.3 h -1.5 v -6 h -7.7 v 6 h -1.5 z"
       id="path68"
       inkscape:connector-curvature="0"
       style="fill:#51514d" /></g><path
     d="m 201.79106,239 c -46.4,-41.1 -111.1,-35.3 -126.3,-33.2 0.6,-24.5 -5.8,-43 -19.1,-54.8 -21.2,-18.8 -51.7000004,-13.7 -53.0000004,-13.5 l -2.99999998,0.5 -0.2,3.1 C -1.2089404,167 5.0910596,186.4 18.89106,198.9 c 17.4,15.7 41.3,15.5 49.9,14.8 -2.6,61.9 12.7,108.4 45.7,138.2 51.7,46.8 127.2,35.7 130.3,35.2 l 3.1,-0.5 0.2,-3.1 c 3.6,-65.5 -12,-114.1 -46.3,-144.5 z m -177.7,-45.8 c -11.4,-10.3 -16.9000004,-26.6 -16.2000004,-48.3 7.8000004,-0.7 28.6000004,-1.1 43.4000004,12 11.6,10.3 17.2,26.8 16.6,49.2 -7.9,0.4 -29,0.4 -43.8,-12.9 z m 216.5,186.6 c -14.7,1.5 -77.7,5.5 -120.9,-33.6 -31.3,-28.3 -45.8,-73 -43.1,-132.7 14.4,-1.8 76.9,-6.9 120.1,31.4 31.8,28.2 46.6,73.6 43.9,134.9 z"
     id="path72"
     inkscape:connector-curvature="0"
     style="fill:#a3bd35" /><path
     d="m 243.99106,383.5 0.2,3.1 3.1,0.5 c 3.2,0.5 78.6,11.6 130.3,-35.2 33,-29.9 48.3,-76.4 45.7,-138.2 8.7,0.7 32.5,1 49.9,-14.8 13.8,-12.5 20.1,-31.9 18.7,-57.8 l -0.2,-3.1 -3,-0.5 c -1.3,-0.2 -31.8,-5.3 -53,13.5 -13.3,11.8 -19.7,30.3 -19.1,54.8 -15.1,-2 -79.9,-7.9 -126.3,33.2 -34.2,30.4 -49.8,79 -46.3,144.5 z m 180.3,-177.5 c -0.6,-22.4 4.9,-38.9 16.6,-49.2 14.8,-13.1 35.6,-12.7 43.4,-12 0.6,21.7 -4.8,38 -16.2,48.3 -14.8,13.4 -35.9,13.4 -43.8,12.9 z m -128.8,38.8 c 43.2,-38.3 105.6,-33.2 120.1,-31.4 2.7,59.7 -11.8,104.4 -43.1,132.7 -43.2,39.1 -106.2,35.2 -120.8,33.6 -2.8,-61.2 12,-106.6 43.8,-134.9 z"
     id="path74"
     inkscape:connector-curvature="0"
     style="fill:#4f8c3b" /><path
     d="m 318.39106,249.8 c -3.7,-61.9 -53.6,-103.5 -65.8,-112.8 17.7,-16.9 26.3,-34.5 25.2,-52.2 -1.7,-28.3 -26.9,-46.2 -27.9,-47 l -2.5,-1.8 -2.3,2.1 c -19.3,17.3 -28.6,35.5 -27.7,54.1 1.2,23.4 18.2,40.1 24.9,45.8 -45.6,41.9 -67.7,85.6 -65.5,130 3.5,69.6 64.7,115.1 67.3,117 l 2.6,1.9 2.3,-2.1 c 48.8,-43.9 72.1,-89.3 69.4,-135 z m -93.3,-158 c -0.7,-15.4 6.9,-30.7 22.7,-45.7 6,5 21,19.4 22.2,39.2 0.9,15.5 -6.8,31.1 -23.1,46.5 -5.9,-5.2 -20.8,-20.2 -21.8,-40 z m 21.1,285 c -11.5,-9.3 -58.8,-51.1 -61.7,-109.2 -2.1,-42.2 19.2,-84 63.4,-124.3 11.5,8.9 59.3,49.5 62.7,107.1 2.6,42.4 -19.1,84.9 -64.4,126.4 z"
     id="path76"
     inkscape:connector-curvature="0"
     style="fill:#72a83d" /><g
     id="g100"
     transform="translate(-153.90894,-146.9)"><g
       id="g90"><g
         id="g80"><path
           d="M 217.6,619.2"
           id="path78"
           inkscape:connector-curvature="0"
           style="fill:#6caa6f" /></g><g
         id="g84"><path
           d="m 582.7,620.1 h -1.8 v -1.8 h 1.8 z m -8.9,0 H 572 v -1.8 h 1.8 z m -8.8,0 h -1.8 v -1.8 h 1.8 z m -8.9,0 h -1.8 v -1.8 h 1.8 z m -8.9,0 h -1.8 v -1.8 h 1.8 z m -8.8,0 h -1.8 v -1.8 h 1.8 z m -8.9,0 h -1.8 v -1.8 h 1.8 z m -8.8,0 h -1.8 v -1.8 h 1.8 z m -8.9,0 H 510 v -1.8 h 1.8 z m -8.9,0 h -1.8 v -1.8 h 1.8 z m -8.8,0 h -1.8 v -1.8 h 1.8 z m -8.9,0 h -1.8 v -1.8 h 1.8 z m -8.8,0 h -1.8 v -1.8 h 1.8 z m -8.9,0 h -1.8 v -1.8 h 1.8 z m -8.9,0 h -1.8 v -1.8 h 1.8 z m -8.8,0 H 448 v -1.8 h 1.8 z m -8.9,0 h -1.8 v -1.8 h 1.8 z m -8.9,0 h -1.8 v -1.8 h 1.8 z m -8.8,0 h -1.8 v -1.8 h 1.8 z m -8.9,0 h -1.8 v -1.8 h 1.8 z m -8.8,0 h -1.8 v -1.8 h 1.8 z m -8.9,0 h -1.8 v -1.8 h 1.8 z m -8.9,0 H 386 v -1.8 h 1.8 v 1.8 z m -8.8,0 h -1.8 v -1.8 h 1.8 z m -8.9,0 h -1.8 v -1.8 h 1.8 z m -8.9,0 h -1.8 v -1.8 h 1.8 z m -8.8,0 h -1.8 v -1.8 h 1.8 z m -8.9,0 h -1.8 v -1.8 h 1.8 z m -8.8,0 h -1.8 v -1.8 h 1.8 z m -8.9,0 h -1.8 v -1.8 h 1.8 z m -8.9,0 H 315 v -1.8 h 1.8 z m -8.8,0 h -1.8 v -1.8 h 1.8 z m -8.9,0 h -1.8 v -1.8 h 1.8 z m -8.9,0 h -1.8 v -1.8 h 1.8 z m -8.8,0 h -1.8 v -1.8 h 1.8 z m -8.9,0 h -1.8 v -1.8 h 1.8 z m -8.8,0 h -1.8 v -1.8 h 1.8 z m -8.9,0 H 253 v -1.8 h 1.8 z m -8.9,0 h -1.8 v -1.8 h 1.8 z m -8.8,0 h -1.8 v -1.8 h 1.8 z m -8.9,0 h -1.8 v -1.8 h 1.8 z"
           id="path82"
           inkscape:connector-curvature="0"
           style="fill:#6caa6f" /></g><g
         id="g88"><rect
           x="589.79999"
           y="618.40002"
           width="1.8"
           height="1.8"
           id="rect86"
           style="fill:#6caa6f" /></g></g><g
       id="g94"><path
         d="m 616.6,626.7 -18.5,-8.3 17.9,-8.3 23,7.7 z m -13.6,-8.4 13.7,6.1 16.5,-6.6 -17,-5.7 z"
         id="path92"
         inkscape:connector-curvature="0"
         style="fill:#a7c369" /></g><g
       id="g98"><path
         d="m 200.5,610.1 18.5,8.3 -17.9,8.3 -23,-7.7 z m 13.6,8.3 -13.7,-6.1 -16.4,6.6 17,5.7 z"
         id="path96"
         inkscape:connector-curvature="0"
         style="fill:#a7c369" /></g></g><g
     id="g104"
     transform="translate(-153.90894,-146.9)"><path
       d="m 368.5,300.8 c -15.6,-20.7 -23.9,-44.4 -22.4,-66.2 2,-29.4 19.9,-58.4 53.2,-86 l 2,-1.7 2.2,1.4 c 1.8,1.2 44.2,29.1 52.3,73.7 4.4,24.3 -3.5,51 -21.2,74.9 l -4.4,-6.4 c 16.4,-22.3 22.7,-44.9 18.6,-67.2 -6.6,-36.1 -38.5,-61.4 -47.1,-67.6 -67,57 -52.7,106.8 -28.7,138.7 z"
       id="path102"
       inkscape:connector-curvature="0"
       style="fill:#7ead43" /></g><circle
     cx="125.29107"
     cy="116.6"
     r="10.8"
     id="circle106"
     style="fill:#a7c369" /><circle
     cx="362.79108"
     cy="116.6"
     r="10.8"
     id="circle108"
     style="fill:#a7c369" /></svg>